<svg xmlns="http://www.w3.org/2000/svg" xmlns:xlink="http://www.w3.org/1999/xlink" width="1099" height="146" viewBox="0 0 1099 146">
  <defs>
    <style>
      .cls-1 {
        fill: url(#linear-gradient);
      }

      .cls-2, .cls-4, .cls-6 {
        fill: #fff;
      }

      .cls-3 {
        fill: none;
        opacity: 0.437;
      }

      .cls-4 {
        opacity: 0.483;
      }

      .cls-5, .cls-6 {
        stroke: none;
      }
    </style>
    <linearGradient id="linear-gradient" x1="0.949" y1="1" x2="0.097" gradientUnits="objectBoundingBox">
      <stop offset="0" stop-color="#ffd35c"/>
      <stop offset="1" stop-color="#aa7be8"/>
    </linearGradient>
  </defs>
  <g id="그룹_8769" data-name="그룹 8769" transform="translate(-410 -1355)">
    <g id="그룹_8766" data-name="그룹 8766">
      <rect id="사각형_5467" data-name="사각형 5467" class="cls-1" width="1099" height="146" transform="translate(410 1355)"/>
    </g>
    <g id="그룹_8767" data-name="그룹 8767">
      <path id="패스_6205" data-name="패스 6205" class="cls-2" d="M7,3.3c-1.84,0-2.893-.33-2.893-.991S5.164,1.323,7,1.323s2.909.33,2.909.991S8.843,3.3,7,3.3ZM7,.395c-2.7,0-4.23.676-4.23,1.918,0,1.226,1.525,1.9,4.23,1.9,2.72,0,4.245-.676,4.245-1.9C11.249,1.071,9.724.395,7,.395Zm.645-2.94H6.359v1.289H1.815v.991H12.208v-.991H7.649ZM7.68-4.133V-5.548h4.277V-6.57H3.671v-3.1H2.381v4.119H6.391v1.415H.636V-3.1H13.4V-4.133ZM19.425-6.4h3.129V-7.435H19.425V-9.621H18.136v2.186H14.96V-6.4h3.192v1.1A6.654,6.654,0,0,1,14.567.521l.723.975A7.161,7.161,0,0,0,18.8-2.86,7.007,7.007,0,0,0,22.3,1.275l.739-.991A6.417,6.417,0,0,1,19.425-5.3Zm5.44-3.491v4.481H22v1.053h2.862v1.871H22v1.069h2.862v5.66h1.289V-9.888ZM34.236-.36H30.306V-4.07h3.931ZM38.8-9.872v5.236h-3.3V-8.756H34.236v3.663H30.306V-8.756H29.032V.694h6.462V-3.6h3.3V4.263h1.289V-9.872Zm15.141.016H52.648V.521h1.289ZM50.966-3a35.862,35.862,0,0,1-6.588.472V-4.794h5.11V-8.866H43.073v1.038h5.141v2.06H43.12v4.292h1.132a38.408,38.408,0,0,0,6.84-.472ZM46.029,2.863V-.281H44.739v4.2h9.591V2.863ZM69.519-9.872V4.263h1.289V-9.872ZM63.371-8.787c-2.091,0-3.585,1.918-3.585,4.921s1.494,4.921,3.585,4.921,3.585-1.918,3.585-4.921S65.463-8.787,63.371-8.787Zm0,1.164c1.368,0,2.343,1.478,2.343,3.758,0,2.3-.975,3.774-2.343,3.774-1.384,0-2.358-1.478-2.358-3.774C61.013-6.146,61.988-7.624,63.371-7.624ZM85.085-9.857H83.843V.819h1.242ZM78.073-2.875H75.038V-5.344h3.035Zm1.211-1.855H81.17V.411h1.211v-10H81.17v3.805H79.283V-8.74H78.073v2.374H75.038V-8.74H73.812v6.9h5.472ZM77.176,2.863V-.6H75.887V3.917h9.607V2.863ZM89.032-3.583h4.623V-4.621H89.032V-7.53h5.236V-8.6H87.742V.851h1.085a34.287,34.287,0,0,0,6.446-.44L95.132-.643a31.852,31.852,0,0,1-6.1.44Zm8.4-6.3v5.33H94.519v1.069h2.909V4.247h1.289V-9.888Zm15.739,7.107c-2.469-.472-5.141-2.61-5.141-5.016V-8.882h-1.352V-7.8c0,2.406-2.657,4.528-5.126,5.016l.582,1.069a7.745,7.745,0,0,0,5.22-4.072,7.652,7.652,0,0,0,5.236,4.072ZM101.013,1.275V2.345H113.8V1.275Zm20.44-9.261a1.7,1.7,0,0,1,1.9,1.619,1.7,1.7,0,0,1-1.9,1.619,1.713,1.713,0,0,1-1.918-1.619A1.713,1.713,0,0,1,121.453-7.985Zm0,4.214c1.761,0,3.066-1.069,3.066-2.594,0-1.541-1.305-2.594-3.066-2.594-1.777,0-3.066,1.053-3.066,2.594C118.387-4.841,119.676-3.772,121.453-3.772Zm3.6.723a54.832,54.832,0,0,1-7.343.362l.157,1.085c.818,0,1.84,0,2.909-.047V3.1H122V-1.728a22.334,22.334,0,0,0,3.145-.377Zm.9,2.437h-2.641V.395h2.641V3.508h1.211V-9.526H125.95Zm2.657-9.245V4.231h1.242V-9.857Zm13.459-.016V4.247h1.289V-9.872Zm-9.45,1.195V.835h6.635V-8.677h-1.274v3.726H133.89V-8.677Zm1.274,4.748h4.088V-.218H133.89ZM147.569-8.5H146.3V.662h1.116a32.933,32.933,0,0,0,6.714-.645l-.157-1.069a32.156,32.156,0,0,1-6.4.629Zm11.273,4.261h-2.264V-9.872h-1.289v14.1h1.289V-3.174h2.264Zm5.613.739h5.079V-8.567h-6.384v1.053h5.11v2.956H163.2V.835h1.116a35.945,35.945,0,0,0,6.777-.5l-.142-1.069a31.941,31.941,0,0,1-6.494.5Zm11.336-.77h-2.311V-9.888h-1.289V4.247h1.289V-3.19h2.311Zm10.99-5.6V4.263h1.289V-9.872Zm-6.148,1.085c-2.091,0-3.585,1.918-3.585,4.921s1.494,4.921,3.585,4.921,3.585-1.918,3.585-4.921S182.726-8.787,180.635-8.787Zm0,1.164c1.368,0,2.343,1.478,2.343,3.758,0,2.3-.975,3.774-2.343,3.774-1.384,0-2.358-1.478-2.358-3.774C178.276-6.146,179.251-7.624,180.635-7.624Zm9.811,8.915V2.36h12.783V1.291ZM191.955-8.85v7.343h9.733V-8.85H200.43v2.579h-7.2V-8.85Zm1.274,3.616h7.2v2.673h-7.2ZM204.707,6.055A3.5,3.5,0,0,0,207,2.769c0-1.053-.456-1.7-1.211-1.7a1.022,1.022,0,0,0-1.085,1.006.985.985,0,0,0,1.053,1.006.645.645,0,0,0,.173-.016,2.357,2.357,0,0,1-1.572,2.138Zm13.569-8.318a8.4,8.4,0,0,0,.157-1.6,8.012,8.012,0,0,0-.2-1.792h3.255v3.4Zm-3.349,2.17c-1.352,0-2.3-1.478-2.3-3.774,0-2.28.943-3.758,2.3-3.758,1.336,0,2.3,1.478,2.3,3.758C217.222-1.57,216.263-.092,214.927-.092Zm6.557-9.78v3.16h-3.616a3.179,3.179,0,0,0-2.94-2.075c-2.06,0-3.522,1.918-3.522,4.921s1.462,4.921,3.522,4.921a3.269,3.269,0,0,0,3.035-2.264h3.522V4.263h1.289V-9.872ZM225.9-8.347v1.038h5.3c-.267,3.349-2.154,6.053-5.943,7.862l.692,1.053c4.686-2.3,6.557-5.88,6.557-9.953Zm9.45-1.525v14.1h1.289v-14.1Zm8.491,2.421h5.267V-8.52h-6.557V.741h1.116a33.433,33.433,0,0,0,6.667-.5l-.142-1.069a34.277,34.277,0,0,1-6.352.472Zm11.289,3.145H252.8V-9.872h-1.289V4.263H252.8v-7.5h2.327Zm15.283-5.55h-1.289v8.05h1.289ZM262.835-7.97a2.262,2.262,0,0,1,2.437,2.217,2.253,2.253,0,0,1-2.437,2.217,2.226,2.226,0,0,1-2.406-2.217A2.235,2.235,0,0,1,262.835-7.97Zm0,5.5c2.138,0,3.695-1.336,3.695-3.286s-1.557-3.286-3.695-3.286a3.349,3.349,0,0,0-3.663,3.286A3.349,3.349,0,0,0,262.835-2.467Zm6.006,1.274h-1.258v.755a4.16,4.16,0,0,1-2.028,3.349,3.915,3.915,0,0,1-1.95-3.349v-.755h-1.242v.755a4,4,0,0,1-2.83,3.506l.645.975a4.953,4.953,0,0,0,2.783-2.61,4.5,4.5,0,0,0,2.626,2.736,4.905,4.905,0,0,0,2.61-2.783,4.7,4.7,0,0,0,2.83,2.657l.645-.975a3.84,3.84,0,0,1-2.83-3.506Zm7.689,1.1c-1.352,0-2.3-1.478-2.3-3.774,0-2.28.943-3.758,2.3-3.758,1.336,0,2.28,1.478,2.28,3.758C278.81-1.57,277.867-.092,276.53-.092Zm6.557-9.78v5.377h-3.066c-.2-2.641-1.588-4.292-3.491-4.292-2.06,0-3.522,1.918-3.522,4.921s1.462,4.921,3.522,4.921c1.965,0,3.365-1.73,3.491-4.5h3.066v7.7h1.289V-9.872Zm8,7.909a8.407,8.407,0,0,0,1.95.22,8.686,8.686,0,0,0,1.981-.22V1.354H291.09Zm1.95-6.006c2.264,0,3.9,1.038,3.9,2.61s-1.635,2.61-3.9,2.61-3.884-1.038-3.884-2.61S290.775-7.97,293.04-7.97Zm3.27,9.324V-2.467a3.2,3.2,0,0,0,1.855-2.893c0-2.2-2.123-3.616-5.126-3.616-2.987,0-5.126,1.415-5.126,3.616A3.223,3.223,0,0,0,289.8-2.451V1.354h-3.145V2.423H299.47V1.354Zm5.629,1.918a1.038,1.038,0,0,0,1.038-1.085,1.041,1.041,0,1,0-2.075,0A1.038,1.038,0,0,0,301.939,3.272Z" transform="translate(455 1454)"/>
      <path id="패스_6204" data-name="패스 6204" class="cls-2" d="M17.136,0h9.072L20.916-7.776a8.439,8.439,0,0,0,4.752-7.92c0-5.832-4.464-9.5-11.484-9.5H2.052V0h8.5V-6.336h2.3ZM17.1-15.7c0,1.836-1.116,2.952-3.456,2.952h-3.1v-5.9h3.1C15.984-18.648,17.1-17.532,17.1-15.7ZM37.224-6.408V-9.72H47.88v-6.12H37.224v-2.952H49.356V-25.2H28.872V0H49.824V-6.408Zm14.724-.936h10.8v-6.12h-10.8ZM78.552-25.2H66.42V0h8.5V-6.192h3.636c7.02,0,11.484-3.672,11.484-9.5S85.572-25.2,78.552-25.2Zm-.54,12.456h-3.1v-5.9h3.1c2.34,0,3.456,1.116,3.456,2.952S80.352-12.744,78.012-12.744ZM92.808,0H112.68V-6.588H101.3V-25.2h-8.5Zm43.436,0h8.784L134.012-25.2H125.66L114.644,0h8.64l1.692-4.392h9.576Zm-8.928-10.512,2.448-6.336,2.448,6.336ZM167.256-25.2h-8.208l-5.184,8.712L148.716-25.2h-8.964l9.5,15.948V0h8.5V-9.144ZM187.488-6.408V-9.72h10.656v-6.12H187.488v-2.952H199.62V-25.2H179.136V0h20.952V-6.408ZM235.944-25.2,231.3-10.692,226.908-25.2H219.1l-4.644,14.328L210.06-25.2h-8.748L209.376,0h9.108l4.284-13.464L226.836,0h9.108l8.064-25.2ZM245.88,0h19.872V-6.588H254.376V-25.2h-8.5Z" transform="translate(454 1431)"/>
      <path id="패스_5936" data-name="패스 5936" class="cls-2" d="M14.659-18.2H4.586L.052,4.471H7.7L8.8-1.1h3.919c6.963,0,11.465-3.854,11.465-9.587C24.181-15.415,20.747-18.2,14.659-18.2ZM13.1-6.994H9.963l1.069-5.312H13.59c1.749,0,2.85.68,2.85,2.3C16.44-8.1,15.209-6.994,13.1-6.994ZM22.658,4.471H43.027L41.734-1.456H31.5L34.836-18.2H27.193Zm38.927,0H69.2L63.82-18.2H56.306L41.861,4.471h8.064L52.193.52H60.84ZM55.335-4.986l3.336-5.8,1.1,5.8ZM91.9-18.2H84.227l-6.316,7.838L74.834-18.2H67.158L72.826-3.852,71.174,4.471h7.643l1.619-8.226Z" transform="translate(1363.943 1460.765)"/>
      <g id="그룹_8670" data-name="그룹 8670" transform="translate(632.182 -9.818)">
        <g id="패스_6206" data-name="패스 6206" class="cls-3" transform="translate(698.818 1404.818)">
          <path class="cls-5" d="M31.5,0A31.5,31.5,0,1,1,0,31.5,31.5,31.5,0,0,1,31.5,0Z"/>
          <path class="cls-6" d="M 31.5 9 C 19.09345626831055 9 9 19.09345626831055 9 31.5 C 9 43.90654754638672 19.09345626831055 54 31.5 54 C 43.90654754638672 54 54 43.90654754638672 54 31.5 C 54 19.09345626831055 43.90654754638672 9 31.5 9 M 31.5 0 C 48.89696502685547 0 63 14.10303497314453 63 31.5 C 63 48.89696502685547 48.89696502685547 63 31.5 63 C 14.10303497314453 63 0 48.89696502685547 0 31.5 C 0 14.10303497314453 14.10303497314453 0 31.5 0 Z"/>
        </g>
        <path id="다각형_9" data-name="다각형 9" class="cls-4" d="M11,0,22,19H0Z" transform="translate(742.818 1425.818) rotate(90)"/>
      </g>
    </g>
  </g>
</svg>
