<svg xmlns="http://www.w3.org/2000/svg" width="32" height="32" viewBox="0 0 32 32">
    <defs>
        <style>
            .prefix__cls-2{fill:#979797}
        </style>
    </defs>
    <g id="prefix__그룹_8274" data-name="그룹 8274" transform="translate(-1398 -3263)">
        <g id="prefix__그룹_8243" data-name="그룹 8243" transform="translate(1397.66 3262.66)">
            <path id="prefix__사각형_5139" d="M0 0H32V32H0z" data-name="사각형 5139" transform="translate(.34 .34)" style="fill:transparent"/>
            <g id="prefix__kakao-talk" transform="translate(5.006 6.398)">
                <path id="prefix__패스_5560" d="M9.424 9.306l-.654 1.843h1.306z" class="prefix__cls-2" data-name="패스 5560" transform="translate(-.487 -1.461)"/>
                <path id="prefix__패스_5561" d="M11.333 1C5.075 1 0 4.974 0 9.877c0 3.17 2.121 5.951 5.313 7.521-1.227 4.2-1.259 4.222-1.051 4.344.261.152.6 0 5.059-3.127a14.5 14.5 0 002.013.14c6.259 0 11.333-3.974 11.333-8.877S17.592 1 11.333 1zM5.721 12.355a.654.654 0 01-1.307 0V8.5h-1.02a.636.636 0 110-1.272h3.347a.636.636 0 110 1.272h-1.02zm5.079.612c-.68 0-.554-.534-.868-1.129H7.939c-.311.59-.189 1.129-.868 1.129-.655 0-.77-.4-.57-1.012l1.564-4.089a.984.984 0 01.871-.641.984.984 0 01.872.641c1.031 3.202 2.506 5.102.992 5.101zm3.72-.087h-2.1c-1.095 0-.429-1.478-.626-5.007a.668.668 0 011.335 0v3.816h1.389a.6.6 0 110 1.191zm5.118-.489a.646.646 0 01-.254.429c-.9.681-1.569-1.3-2.449-2.145l-.227.226v1.417a.654.654 0 01-1.308 0V7.874a.654.654 0 011.307 0v1.4c1.206-.9 1.875-2.522 2.637-1.765s-.8 1.391-1.444 2.283c1.515 2.089 1.8 2.141 1.736 2.6z" class="prefix__cls-2" data-name="패스 5561" transform="translate(0 -1)"/>
            </g>
        </g>
    </g>
</svg>
