<svg xmlns="http://www.w3.org/2000/svg" width="32" height="32" viewBox="0 0 32 32">
    <g id="prefix__그룹_8275" data-name="그룹 8275" transform="translate(-1439 -3263)">
        <g id="prefix__그룹_8244" data-name="그룹 8244" transform="translate(1439.26 3262.66)">
            <path id="prefix__사각형_5138" d="M0 0H32V32H0z" data-name="사각형 5138" transform="translate(-.26 .34)" style="fill:transparent"/>
            <path id="prefix__youtube" d="M26.627-3.1a3.406 3.406 0 00-2.4-2.4c-2.128-.582-10.638-.582-10.638-.582s-8.51 0-10.637.56A3.475 3.475 0 00.56-3.1 35.889 35.889 0 000 3.436a35.757 35.757 0 00.56 6.539 3.407 3.407 0 002.4 2.4c2.15.582 10.638.582 10.638.582s8.51 0 10.637-.56a3.406 3.406 0 002.4-2.4 35.9 35.9 0 00.56-6.539 34.068 34.068 0 00-.568-6.558zM10.884 7.512V-.64l7.077 4.076zm0 0" transform="translate(2.093 12.912)" style="fill:#979797"/>
        </g>
    </g>
</svg>
