<svg xmlns="http://www.w3.org/2000/svg" width="32" height="32" viewBox="0 0 32 32">
    <defs>
        <style>
            .prefix__cls-2{fill:#979797}
        </style>
    </defs>
    <g id="prefix__그룹_8272" data-name="그룹 8272" transform="translate(-1328 -3263)">
        <g id="prefix__그룹_8241" data-name="그룹 8241" transform="translate(1328 3262.66)">
            <path id="prefix__사각형_5137" d="M0 0H32V32H0z" data-name="사각형 5137" transform="translate(0 .34)" style="fill:transparent"/>
            <g id="prefix__그룹_8228" data-name="그룹 8228" transform="translate(3.81 7.241)">
                <path id="prefix__패스_5556" d="M600.09 394.574a.937.937 0 00-.693.293 1.019 1.019 0 000 1.42.937.937 0 00.693.293 1 1 0 000-2.006z" class="prefix__cls-2" data-name="패스 5556" transform="translate(-594.971 -387.212)"/>
                <path id="prefix__패스_5557" d="M656.216 394.517a.932.932 0 00-.692.293 1.017 1.017 0 000 1.42.935.935 0 00.692.293 1 1 0 000-2.006z" class="prefix__cls-2" data-name="패스 5557" transform="translate(-642.725 -387.163)"/>
                <path id="prefix__패스_5558" d="M693.648 394.574a.939.939 0 00-.693.293 1.019 1.019 0 000 1.42.939.939 0 00.693.293 1 1 0 000-2.006z" class="prefix__cls-2" data-name="패스 5558" transform="translate(-674.574 -387.212)"/>
                <path id="prefix__패스_5559" d="M592.927 345.218h-18.919a2.646 2.646 0 00-2.638 2.638v10.7a2.646 2.646 0 002.638 2.638h7.429s1.435 3.916 1.957 3.916 2.075-3.916 2.075-3.916h7.458a2.646 2.646 0 002.638-2.638v-10.7a2.646 2.646 0 00-2.638-2.638zM578.4 355.1a2.315 2.315 0 01-2.861.2h-.018v.3H574.1v-6.2h1.421v2.368h.018a2.335 2.335 0 011.5-.459 1.878 1.878 0 011.371.676 2.482 2.482 0 01.553 1.592 2.034 2.034 0 01-.563 1.523zm3.048.545H580v-3.834a.922.922 0 00-.7-1v-1.534a2.441 2.441 0 012.148 2.584zm5.684-1.175a2.25 2.25 0 01-.532.743 2.426 2.426 0 01-.793.495 2.628 2.628 0 01-.947.172 2.559 2.559 0 01-.932-.172 2.49 2.49 0 01-.794-.495 2.355 2.355 0 01-.544-.752 2.164 2.164 0 010-1.747 2.368 2.368 0 01.544-.752 2.488 2.488 0 01.794-.5 2.552 2.552 0 01.932-.172 2.621 2.621 0 01.947.172 2.425 2.425 0 01.793.5 2.248 2.248 0 01.532.743 2.232 2.232 0 010 1.765zm5.7.615a2.822 2.822 0 01-.692 2.212 2.466 2.466 0 01-2.091.487v-1.125a1.2 1.2 0 001.371-1.071v-.288h-.02a1.607 1.607 0 01-1.426.61 1.83 1.83 0 01-1.431-.617 2.4 2.4 0 01-.514-1.612 2.67 2.67 0 01.572-1.8 1.959 1.959 0 011.547-.651 1.673 1.673 0 011.252.448h.017v-.339h1.412z" class="prefix__cls-2" data-name="패스 5559" transform="translate(-571.37 -345.218)"/>
            </g>
        </g>
    </g>
</svg>
