<svg xmlns="http://www.w3.org/2000/svg" width="70" height="70" viewBox="0 0 70 70">
    <defs>
        <style>
            .cls-1,.cls-2,.cls-3{fill:none}.cls-2,.cls-3{stroke-width:2px}.cls-2{stroke-miterlimit:10;stroke:#5c3fbf}.cls-3{stroke:#ffc200;stroke-linejoin:round}
        </style>
    </defs>
    <g id="그룹_4806" data-name="그룹 4806" transform="translate(-578 -630)">
        <path id="사각형_2965" d="M0 0h70v70H0z" class="cls-1" data-name="사각형 2965" transform="translate(578 630)"/>
        <g id="그룹_4794" data-name="그룹 4794">
            <g id="그룹_4792" data-name="그룹 4792" transform="translate(541 596)">
                <path id="패스_2115" d="M51.532 64.885A21.826 21.826 0 0 0 61.421 88.9c5.754 3.463 11.844 3.758 15.507 2.553m1.851-15.571a8.464 8.464 0 0 1 2.745-3.407c2.272-1.67 6.432-2.865 8.7-6.792 2.629-4.556.755-10.421-6.9-14.072-5.765-2.752-18.569-2.29-25.983 3.773" class="cls-2" data-name="패스 2115"/>
                <path id="패스_2116" d="M80.246 82.1c-1.266-2.347-26.311-25.3-27.682-26.149a1.531 1.531 0 1 0-2.164 2.157c.849 1.371 23.8 26.417 26.149 27.683" class="cls-2" data-name="패스 2116"/>
                <path id="패스_2117" d="M92.342 89.517c-3.565 3.5-7.318 3.889-9.89 3.2-3.494-.935-4.427-3.566-3.868-5.657s2.371-3.712 5.592-2.85 3.947 4.884 8.166 5.307z" class="cls-3" data-name="패스 2117"/>
                <circle id="타원_288" cx="3" cy="3" r="3" class="cls-2" data-name="타원 288" transform="translate(81 59)"/>
                <circle id="타원_289" cx="3" cy="3" r="3" class="cls-2" data-name="타원 289" transform="translate(73 54)"/>
                <circle id="타원_290" cx="3" cy="3" r="3" class="cls-2" data-name="타원 290" transform="translate(64 56)"/>
                <path id="패스_2118" d="M69 83a3 3 0 1 1-3-3" class="cls-2" data-name="패스 2118"/>
            </g>
        </g>
    </g>
</svg>
