<svg xmlns="http://www.w3.org/2000/svg" width="70" height="70" viewBox="0 0 70 70">
    <defs>
        <style>
            .cls-1,.cls-2,.cls-3{fill:none}.cls-2,.cls-3{stroke:#5c3fbf;stroke-miterlimit:10;stroke-width:2px}.cls-3{stroke:#ffc200}
        </style>
    </defs>
    <g id="그룹_4805" data-name="그룹 4805" transform="translate(-855 -630)">
        <path id="사각형_2960" d="M0 0h70v70H0z" class="cls-1" data-name="사각형 2960" transform="translate(855 630)"/>
        <g id="그룹_4791" data-name="그룹 4791" transform="translate(817.229 590.51)">
            <path id="패스_2107" d="M62.332 70L59 73.332l3.332 3.332 3.332-3.332" class="cls-2" data-name="패스 2107" transform="translate(.553 2.214)"/>
            <path id="패스_2108" d="M82.332 56.664l3.332-3.332L82.332 50 79 53.332" class="cls-2" data-name="패스 2108" transform="translate(2.767)"/>
            <path id="사각형_2956" d="M0 0h4.712v10.995H0z" class="cls-2" data-name="사각형 2956" transform="rotate(-45 114.82 -38.232)"/>
            <path id="패스_2109" d="M84.988 90H59.443C56.511 90 55 91.511 55 94.443v1.111h34.431v-1.111c0-2.932-1.511-4.443-4.443-4.443z" class="cls-2" data-name="패스 2109" transform="translate(.111 4.427)"/>
            <path id="선_657" d="M0 0h17" class="cls-2" data-name="선 657" transform="translate(53.771 85.49)"/>
            <path id="패스_2110" d="M79 88.824l5.914-4.224a4.445 4.445 0 0 0 1.86-3.616V69.56a4.429 4.429 0 0 0-1.3-3.135 2357.654 2357.654 0 0 1-5.91-5.938" class="cls-2" data-name="패스 2110" transform="translate(2.767 1.161)"/>
            <path id="패스_2111" d="M76.221 80.107l2.572-.857a1.11 1.11 0 0 0 .76-1.054v-1.9a1.109 1.109 0 0 0-.539-.952l-4.476-2.686A1.109 1.109 0 0 1 74 71.7V69" class="cls-2" data-name="패스 2111" transform="translate(2.214 2.103)"/>
            <path id="패스_2112" d="M64 67.549L79.549 52l5.551 5.553-5.74 5.747" class="cls-2" data-name="패스 2112" transform="translate(1.107 .221)"/>
            <path id="선_658" d="M3.524 0L0 3.524" class="cls-2" data-name="선 658" transform="translate(70.66 69.8)"/>
            <path id="패스_2113" d="M82.328 91.439s-3.505-7.67-4.443-10S75.664 77 73.443 77A4.443 4.443 0 0 0 69 81.443v10" class="cls-2" data-name="패스 2113" transform="translate(1.66 2.988)"/>
            <path id="패스_2114" d="M69.775 86.443h-4.443L62 84.221V82" class="cls-2" data-name="패스 2114" transform="translate(.885 3.542)"/>
            <circle id="타원_287" cx="4.443" cy="4.443" r="4.443" class="cls-3" data-name="타원 287" transform="rotate(-88.644 72.736 -1.764)"/>
        </g>
    </g>
</svg>
